# xmcd
#
# Track frame offsets: 
#        150
#        19170
#        37659
#        55132
#        79376
#        115882
#        141379
#        165773
#        231704
#        257648
#        286078
#
# Disc length: 3999 seconds
#
# Revision: 0
# Processed by: cddbd v1.5.2PL0 Copyright (c) Steve Scherf et al.
# Submitted via: ExactAudioCopy v0.95b3
#
DISCID=8f0f9d0b
DTITLE=Bill Evans  - 25 Evans - Disc 2
DYEAR=1900
DGENRE=
TTITLE0=01 Stella By Starlight
TTITLE1=02 Only Child
TTITLE2=03 Yesterdays
TTITLE3=04 Alfie
TTITLE4=05 Nardis
TTITLE5=06 Someday My Prince Will Come
TTITLE6=07 Heres That Rainy Day
TTITLE7=08 Never Let Me Go
TTITLE8=09 Straight No Chaser
TTITLE9=10 Autumn Leaves
TTITLE10=11 The Dolphin-Before
EXTD=
EXTT0=
EXTT1=
EXTT2=
EXTT3=
EXTT4=
EXTT5=
EXTT6=
EXTT7=
EXTT8=
EXTT9=
EXTT10=
PLAYORDER=
